<svg xmlns="http://www.w3.org/2000/svg" xmlns:xlink="http://www.w3.org/1999/xlink" width="112" height="162" viewBox="0 0 112 162"><filter height="1.5" width="1.5" id="d" x="-.25" y="-.25"><feGaussianBlur result="fbSourceGraphic" stdDeviation="1"/><feColorMatrix in="fbSourceGraphic" values="0 0 0 -1 0 0 0 0 -1 0 0 0 0 -1 0 0 0 0 1 0" result="fbSourceGraphicAlpha"/><feGaussianBlur in="fbSourceGraphicAlpha" result="blur" stdDeviation="1"/><feColorMatrix values="1 0 0 0 0 0 1 0 0 0 0 0 1 0 0 0 0 0 0.3 0" result="bluralpha"/><feOffset dy="2.5" in="bluralpha" dx="-.5" result="offsetBlur"/><feMerge result="fbSourceGraphic"><feMergeNode in="offsetBlur"/><feMergeNode in="fbSourceGraphic"/></feMerge><feColorMatrix in="fbSourceGraphic" values="0 0 0 -1 0 0 0 0 -1 0 0 0 0 -1 0 0 0 0 1 0" result="fbSourceGraphicAlpha"/><feGaussianBlur in="fbSourceGraphicAlpha" result="blur" stdDeviation="1"/><feColorMatrix values="1 0 0 0 0 0 1 0 0 0 0 0 1 0 0 0 0 0 0.3 0" result="bluralpha"/><feOffset dy="1.3" in="bluralpha" dx="-1.6" result="offsetBlur"/><feMerge><feMergeNode in="offsetBlur"/><feMergeNode in="fbSourceGraphic"/></feMerge></filter><filter height="1.238" width="1.04" id="c" x="-.02" y="-.119"><feGaussianBlur stdDeviation=".35"/></filter><g><g><path fill="#f00" d="M21.89 137.433h58.518v18.183h-58.52z"/><g><path d="M34.642 151.604c-7.298 0-13.603 1.598-16.554 3.898H51.18c-2.946-2.298-9.242-3.898-16.538-3.898z"/><path d="M67.696 151.514c-7.298 0-13.604 1.597-16.553 3.898h33.094c-2.95-2.3-9.243-3.898-16.54-3.898z"/></g><g><path d="M51.143 78.518c-22.825 0-41.32 26.14-41.32 58.38 0 1.837.055 3.654.17 5.448 12.05 3.766 26.118 5.937 41.15 5.937s29.1-2.17 41.15-5.937c.116-1.794.183-3.61.183-5.448 0-32.24-18.507-58.38-41.333-58.38z"/><g transform="matrix(1.615 0 0 1.615 -249.152 -788.159)"><defs><path id="a" d="M186 536.642c-14.133 0-25.586 16.186-25.586 36.15 0 1.136.035 2.26.107 3.372 7.46 2.332 16.172 3.676 25.48 3.676s18.02-1.343 25.48-3.676c.072-1.11.113-2.236.113-3.373 0-19.962-11.46-36.148-25.593-36.148z"/></defs><clipPath id="b"><use xlink:href="#a" overflow="visible"/></clipPath><path clip-path="url(#b)" fill="#00f" d="M159.183 588.848h53.227v1.638h-53.227v-1.638zm0-3.276h53.227v1.638h-53.227v-1.638zm0-3.275h53.227v1.638h-53.227v-1.638zm0-3.276h53.227v1.64h-53.227v-1.64zm0-3.275h53.227v1.64h-53.227v-1.64zm0-3.275h53.227v1.638h-53.227v-1.638zm0-3.274h53.227v1.638h-53.227v-1.638zm0-3.276h53.227v1.638h-53.227v-1.638zm0-3.276h53.227v1.638h-53.227v-1.638zm0-3.275h53.227v1.636h-53.227v-1.637zm0-3.276h53.227v1.637h-53.227v-1.636zm0-3.276h53.227v1.637h-53.227v-1.637zm0-3.276h53.227v1.637h-53.227v-1.638zm0-3.274h53.227v1.637h-53.227v-1.637zm0-3.276h53.227v1.638h-53.227v-1.638zm0-3.276h53.227v1.638h-53.227v-1.638zm0-3.275h53.227v1.638h-53.227v-1.637zm0-3.274h53.227v1.637h-53.227v-1.637zm0-3.276h53.227v1.638h-53.227v-1.638zm0-3.275h53.227v1.638h-53.227v-1.638z"/></g></g><path fill="#FBBA79" d="M98.265 64.782c0 26.02-21.093 47.116-47.116 47.116-26.022 0-47.117-21.095-47.117-47.116 0-26.02 21.095-47.118 47.116-47.118 26.018 0 47.115 21.096 47.115 47.118z"/><g fill="#fff"><path d="M49.877 78.967c-3.682 7.55-11.722 11.205-17.96 8.164-6.236-3.042-8.307-11.627-4.624-19.176 3.68-7.55 11.72-11.205 17.958-8.164 6.24 3.04 8.31 11.627 4.627 19.177z"/><path d="M52.42 78.967c3.68 7.55 11.72 11.205 17.958 8.164 6.237-3.042 8.307-11.627 4.625-19.176S63.28 56.75 57.043 59.79 48.74 71.417 52.42 78.967z"/></g><path d="M34.78 81.166c0 .913-.74 1.652-1.65 1.652-.915 0-1.655-.74-1.655-1.652 0-.912.74-1.652 1.654-1.652.91-.002 1.65.738 1.65 1.652z"/><path d="M62.553 81.166c0 .913-.74 1.652-1.652 1.652-.912 0-1.652-.74-1.652-1.652 0-.912.74-1.652 1.653-1.652.913-.002 1.653.738 1.653 1.652z"/><path stroke="#000" stroke-width="7.2675" stroke-linecap="round" fill="none" d="M42.057 102.657l13.885-2.316" filter="url(#c)"/><path stroke="#000" stroke-width="4.3605" d="M80.904 133.568l-2.15-13.72" fill="none"/><path stroke="#000" stroke-width="4.3605" d="M21.89 134.067l1.982-13.39" fill="none"/><path fill="#FBBA79" d="M24.19 140.007c0 4.2-3.404 7.605-7.603 7.605-4.2 0-7.604-3.403-7.604-7.605 0-4.197 3.405-7.602 7.604-7.602 4.2 0 7.603 3.405 7.603 7.602z"/><path fill="#FBBA79" d="M93.293 140.007c0 4.2-3.403 7.605-7.605 7.605-4.198 0-7.602-3.403-7.602-7.605 0-4.197 3.404-7.602 7.602-7.602 4.202 0 7.605 3.405 7.605 7.602z"/><path fill="#FBBA79" stroke="#FF7F2A" stroke-width="1.707055" d="M24.555 136.712c0 2.022-1.64 3.662-3.66 3.662s-3.662-1.64-3.662-3.662c0-2.02 1.64-3.662 3.66-3.662s3.662 1.642 3.662 3.662z"/><path fill="#FBBA79" stroke="#FF7F2A" stroke-width="1.707055" d="M84.73 136.712c0 2.022-1.64 3.662-3.663 3.662s-3.66-1.64-3.66-3.662c0-2.02 1.638-3.662 3.66-3.662s3.663 1.642 3.663 3.662z"/><path fill="#f00" d="M2.756 52.032c32.58-6.17 64.83-5.67 96.785 0v10.754c-31.96-5.724-64.202-6.118-96.784 0V52.032z"/><g><path fill="#f00" d="M96.333 51.294c-2.928-.486-5.853-.982-8.785-1.38-4.004-.545-8.016-1.008-12.027-1.38-4.014-.376-8.037-.664-12.06-.86-4.02-.198-8.046-.3-12.08-.317-4.03-.016-8.066.063-12.11.236-4.04.172-8.088.44-12.14.807-4.052.365-8.108.825-12.172 1.39-2.992.417-5.99.945-8.99 1.475-1.037 3.532-1.643 7.242-1.82 11.066 3.606-.656 7.21-1.27 10.81-1.77 4.064-.563 8.12-1.023 12.172-1.39 4.052-.368 8.1-.644 12.14-.818 4.043-.175 8.08-.26 12.11-.246 4.034.013 8.06.123 12.08.317 4.02.195 8.046.475 12.06.848 4.012.374 8.014.836 12.018 1.383 3.538.483 7.078 1.063 10.61 1.678-.182-3.812-.783-7.513-1.815-11.036z"/><path fill="#00f" d="M51.145 17.428c-21.403 0-39.44 14.29-45.178 33.836 3-.53 6-1.057 8.99-1.473 4.063-.565 8.12-1.025 12.173-1.39 4.052-.366 8.1-.636 12.14-.81 4.043-.17 8.08-.25 12.11-.233 4.034.016 8.06.118 12.08.316 4.024.197 8.046.485 12.06.86 4.016.374 8.026.836 12.03 1.38 2.93.4 5.858.894 8.786 1.38-5.73-19.56-23.776-33.864-45.19-33.864v-.002z"/></g></g><g><path stroke="#f00" stroke-width="7.2675" stroke-linecap="round" fill="none" d="M42.345 21.306l18-8.18" filter="url(#d)"/><path stroke="#f00" stroke-width="7.2675" stroke-linecap="round" fill="none" d="M41.507 16.26l19.682 1.913" filter="url(#d)"/><path stroke="#f00" stroke-width="7.2675" stroke-linecap="round" fill="none" d="M43.304 11.468L59.39 22.966" filter="url(#d)"/><path stroke="#f00" stroke-width="7.2675" stroke-linecap="round" fill="none" d="M47.258 8.217l8.183 18" filter="url(#d)"/><path stroke="#f00" stroke-width="7.2675" stroke-linecap="round" fill="none" d="M52.303 7.377L50.39 27.06" filter="url(#d)"/><path stroke="#f00" stroke-width="7.2675" stroke-linecap="round" fill="none" d="M57.096 9.173L45.598 25.26" filter="url(#d)"/></g></g></svg>