<svg xmlns="http://www.w3.org/2000/svg" width="200" height="120" viewBox="0 0 200 120"><g><path fill="#816647" d="M11.99 24.48S4.443 34.882 7.5 37.942c3.064 3.06 6.123 6.73 6.123 6.73l60.994 7.142-1.427 3.67s5.1 1.43 7.345 1.02c2.243-.407 4.487-2.04 4.487-2.04l.204-26.315-73.235-3.67z"/><path fill="#FDD99B" d="M15.044 74.466l-9.37 2.228s-7.588.225-5.132-5.8c0 0 3.793-5.577 5.354-5.132 0 0-4.015-6.47-1.34-6.917 1.34 1.117 9.596 7.364 9.596 7.364l.892 8.256z"/><path fill="#FDD99B" d="M77.075 74.687l10.487 4.465s6.918 2.007 8.033-.67c0 0-.668-10.49-10.04-9.15 0 0 2.677-3.57 2.677-5.13 0 0-6.47-1.562-8.255 0L77.52 75.8l-.445-1.115z"/><path fill="#FDD99B" d="M54.762 98.34l1.785 10.71s-.67 3.57-2.23 5.355l-3.348 3.125s-1.786 3.123 2.455 2.677c3.346-1.116 13.833-5.578 13.833-5.578s2.454-1.564 1.56-3.795c0 0-9.594-11.827-8.255-13.834l-5.8 1.34z"/><path fill="#FDD99B" d="M30.44 98.562c1.564 0 9.596.894 9.596.894l-4.464 14.95s-1.34 4.238-5.8 3.124c0 0-5.8-1.56-6.916-.67 0 0-3.124.67-4.017 0 0 0-4.242-2.007-2.01-3.346l10.265-4.685L30.44 98.56z"/><path fill="#FF9BFF" d="M33.12 59.96c-.895 0-20.976 1.34-20.976 1.34l.67 14.28 13.834.446-.224 10.042s-2.675 10.04-3.793 10.487c0 0 3.57 12.047 48.866 2.453l-8.255-12.72 4.018-10.485s12.048 5.58 12.72 3.123c.668-2.453 1.784-16.287 1.784-16.287l-21.645-1.564L33.12 59.96z"/><path fill="#FFD1FF" d="M36.018 61.968c0 .894 6.25 12.498 6.25 12.498l8.032-9.373-14.282-3.125z"/><path fill="#EEB8EE" d="M48.738 63.978L36.465 77.812l8.033.89 13.834-14.725h-9.594z"/><path fill="#FDD99B" d="M12.815 25.598S4.335 61.3 44.498 65.985c0 0 37.264 5.356 39.496-35.7-.225-1.117-30.348-18.52-30.348-18.52l-40.83 13.833z"/><path fill="#FF9BFF" d="M38.697 55.72s9.818 4.688 16.065 1.118c0 0-11.156 10.486-16.065-1.118z"/><path fill="#816647" d="M48.07 4.18L43.605.16S2.55 5.516 1.21 49.25l17.85.446S6.12 35.863 12.37 29.616l35.255.89 7.14-12.047s-3.57 12.494-.446 12.494c3.122 0 28.56.892 28.56.892s.447 21.42-5.802 24.545l20.975 1.34s4.016-59.8-45.072-56.674l-4.91 3.123z"/><path fill="#D9BB7A" d="M40.706 51.26s7.808 2.677 10.04 1.114"/><path fill="#FFE3FF" d="M25.086 76.92c5.355 0 40.163-2.008 42.172 1.56L65.92 88.52s-41.95 3.125-41.95-2.23l1.116-9.37z"/><path fill="#369" d="M70.16 38.54c.058-3.328-3.04-6.066-6.92-6.116-3.882-.05-7.077 2.605-7.135 5.932v.184c-.06 3.326 3.04 6.064 6.92 6.115 3.882.05 7.076-2.605 7.135-5.932.002-.062.002-.123 0-.184z"/><path fill="#369" d="M36.354 36.983c.058-3.326-3.04-6.064-6.92-6.115-3.883-.05-7.077 2.606-7.136 5.932v.183c-.058 3.328 3.04 6.065 6.922 6.116 3.88.05 7.075-2.607 7.134-5.934v-.183z"/><path fill="#eee" d="M31.54 37.007c0 1.11-.972 2.01-2.17 2.01-1.2 0-2.17-.9-2.17-2.01 0-1.11.97-2.01 2.17-2.01 1.198.002 2.17.9 2.17 2.01z"/><path fill="#eee" d="M64.842 38.52c0 1.123-.986 2.035-2.203 2.035-1.217 0-2.202-.91-2.202-2.036s.985-2.038 2.2-2.038c1.218 0 2.204.912 2.204 2.037z"/><path fill="#D9BB7A" d="M33.79 49.925c0 1.97-2.998 3.57-6.695 3.57-3.7 0-6.695-1.6-6.695-3.57 0-1.972 2.996-3.57 6.695-3.57 3.697 0 6.694 1.598 6.694 3.57z"/><path fill="#D9BB7A" d="M72.16 50.37c0 1.973-2.998 3.57-6.695 3.57-3.7 0-6.695-1.597-6.695-3.57 0-1.97 2.996-3.57 6.695-3.57 3.697 0 6.694 1.6 6.694 3.57z"/></g></svg>