<svg xmlns="http://www.w3.org/2000/svg" width="200" height="120" viewBox="0 0 200 120"><g transform="translate(-23.417 -5.113)"><path fill="#025" stroke="#000" stroke-width="3" d="M96.155 120.504l9.09.188-1.515-2.842.662-2.083-3.89-2.104-5.02 3.68.673 3.16z"/><path fill="#025" stroke="#000" stroke-width="3" d="M53.54 112.926s0 7.67 1.136 7.86c1.136.19 11.363-.19 11.363-.19l-4.642-9.564-8.05-3.408.19 5.302z"/><path fill="#D8B6A0" stroke="#000" stroke-width="2" d="M29.485 76.087S31 83.38 35.262 87.642c4.26 4.26 15.342 20.93 15.436 21.4.095.474.723 2.51.89 2.88.166.367 2.108 3.414 2.208 3.615.102.2 1.106 2.11 1.54-.066 0 0-.534-2.377-1.138-3.046 0 0 3.282 3.38 3.885 2.912.6-.47.803-1.105.367-2.243 0 0 1.004.635 1.34.1.336-.534-2.678-6.228-2.98-6.495-.3-.268-.602-2.043-.334-2.076.267-.032 1.64.67 1.64.67s-1.17-5.39-.2-7.2c0 0-4.755-.6-5.088-.836-.336-.235-1.507 0-4.588-5.79-3.08-5.795-6.82-13.957-6.82-13.957l-11.935-1.423z"/><path opacity=".286" fill="#474442" enable-background="new" d="M50.815 95.6l-.367 1.925s1.272.738 1.14 1.273c-.134.535-.4 1.272-.4 1.81 0 .533-.268 2.138-.805 2.538-.536.404.668.205 1.004.138.335-.068-.536 1.336-.2 1.736.335.402-.268.47-.333.803-.07.337-.407 2.815-.072 3.083.334.267.873-.204 1.41.4.535.603 1.77-1.34 2.907.806 1.138 2.14 2.08 2.574 2.348 2.644.268.066-1.41-2.038-1.577-2.272s1.846 1.674 2.048 1.81c.2.13-1.174-1.143-.94-1.61.234-.47-.535-.07-.535-.07s-2.178-2.037-1.775-2.606c.402-.57.97-1.88 1.672-.34.705 1.54 1.904 3.05 2.71 3.35.014.007.028.007.044.007-.828-1.83-2.093-4.154-2.286-4.323-.3-.27-.6-2.045-.333-2.078.27-.032 1.642.67 1.642.67s-1.17-5.393-.2-7.2c0 0-4.756-.6-5.09-.836-.217-.157-.796-.12-2.012-1.658z"/><path opacity=".395" fill="#272726" enable-background="new" d="M55.735 103.875c-.106-.004-.193.014-.263.044-.734.336-1.44.67-1.34 1.004.103.334.568.135.568 1.172 0 .29-.012.48-.03.617.23-.38.786-.874 1.838.32.37.42.733.73 1.07.953-.378-.694-.683-1.21-.768-1.287-.3-.27-.6-2.046-.333-2.08.27-.03 1.642.67 1.642.67s-.056-.255-.125-.61c-.79-.386-1.725-.79-2.26-.805zm-1.066 2.838c-.093.15-.137.283-.137.283s.087.065.136-.283z"/><path fill="#241F1C" stroke="#000" stroke-width="2" d="M76.9 46.63s-10.582 3.616-12.725 4.285c-2.143.67-5.357 1.474-5.892 1.474-.536 0-1.05-.5-1.808.306-.758.805-2.415 1.607-2.937 1.37-.52-.236-2.036-1.323-3.504 1.374 0 0-5.73-.663-7.245 2.794 0 0-3.41 1.326-4.26 3.646 0 0-5.59.095-6.158 4.026 0 0-4.45 1.09-3.787 5.872 0 0-1.61 5.065 1.657 6.628 3.266 1.562 5.634 3.03 9.99 1.23 0 0 7.577-5.066 9.234-4.593 1.658.474 3.835.853 4.214.284 0 0 .71.946 1.657.71 0 0 .066 5.012.333 5.48.27.47-2.008 10.446 2.813 15.27 0 0-3.885 2.14-1.207 10.38 0 0 1.54 9.44 2.613 10.11 1.07.668 5.556 3.413 5.556 3.413l33.55-.135 3.17-4.128s-.568-6.156-1.422-6.913c-.852-.76 1.184-3.644 1.374-3.787.188-.142 1.516-2.604.947-4.593 0 0 6.11-.264 6.644-20.757 0 0 1.07-2.946 2.143-2.946 1.07 0 2.544 1.877 3.08 1.812.535-.068 1.473 2.274 1.94 2.274.47 0 2.012 1.876 3.952 1.743 1.942-.136 8.945 1.822 9.8-7.933 0 0-.76-1.895-.854-2.51-.093-.616-1.134-3.407-3.738-4.734 0 0-.095-2.13-3.6-5.256 0 0-1.326-2.463-3.41-2.794 0 0-1.846-1.23-2.7-1.23 0 0-.424-3.08-3.55-2.274 0 0-1.23-.948-1.23-1.232 0 0-19.27-6.2-19.65-7.528-.377-1.324-14.772-1.324-14.993-1.14z"/><path fill="#483E37" d="M96.82 50.368c-.08.24-.114.51-.053.85.227 1.233.812 2.19 1.333 2.817.26.313.5.548.67.683.06.048.094.068.127.09.062-.044.74-.52 1.583-.99.44-.247.908-.48 1.325-.63.418-.15.794-.242 1.094-.09.756.377 2.458.795 3.898 1.754 1.43.954 2.837 2.36 3.942 3.077.56.36 1.41.81 2.15 1.156.37.175.716.325.978.426.133.05.24.086.323.11.06.015.066.015.07.018.007-.007.01-.01.02-.025.03-.05.07-.13.108-.226.083-.19.173-.44.278-.67.104-.23.203-.445.38-.58.088-.065.223-.106.348-.07.123.036.21.125.288.247.154.228.318.418.49.585-.016-.023-.022-.046-.025-.07 0 0-.108-.734-.574-1.36-.463-.624-1.246-1.152-2.753-.765-.054.014-.11.002-.154-.03 0 0-.316-.24-.63-.515-.16-.14-.315-.29-.44-.427-.06-.068-.116-.13-.16-.197-.014-.025-.012-.06-.023-.085-.12-.04-8.802-2.847-14.594-5.085zm19.438 8.602c.38.342.79.542 1.22.542.036 0 .114-.042.162-.05-.498-.25-1.022-.48-1.312-.48-.026.002-.047-.002-.07-.012z"/><path fill="#fca" stroke="#000" stroke-width="2" d="M76.93 47.582s-8.333 1.137-9.754 7.67c0 0 6.062 14.112 13.068 16.1 7.01 1.987 12.408-1.136 12.408-1.136s8.144-9.092 8.9-10.608-1.8-8.995-6.817-11.553c-5.02-2.556-17.804-.378-17.804-.473z"/><path opacity=".575" fill="#D8B6A0" enable-background="new" d="M76.07 47.955c-1.06.243-2.91.78-4.66 1.886-1.792 1.13-3.45 2.83-4.028 5.387.035.08 1.144 2.665 2.985 5.79 1.765 2.996 4.18 6.422 6.852 8.487-.188-.61-.35-1.24-.413-1.808-.04-.376-.04-.73.033-1.023.075-.294.24-.552.515-.67.743-.318 1.77-.462 2.6-.74.415-.138.777-.31 1.028-.528.253-.218.397-.47.412-.835.03-.746-.505-1.89-1.002-3.107-.5-1.22-.956-2.543-.67-3.757.054-.23.017-.72-.13-1.353-.144-.632-.39-1.413-.72-2.27-.648-1.684-1.626-3.664-2.804-5.458z"/><path fill="#F1CAB0" stroke="#000" stroke-width="2" d="M71.532 35.932s1.326 10.987 1.8 11.366c3.967 5.24 7.603 14.61 15.53 10.51 2.036-1.25 8.49-10.113 7.672-9.753-.492.214 1.702-4.925 1.702-4.925l.19-11.174-.948-7.86-3.976-2.747-11.838-2.463-6.723 1.893-3.22 4.83-.188 10.322z"/><path opacity=".566" fill="#FCDEC8" enable-background="new" d="M88.75 21.452l-3.68 1.34-6.968 2.945-.4 5.695s4.42 4.484 4.82 4.82c.402.332 1.473 4.014 1.473 4.014l-1.202 5.83s.333 2.61.533 3.482c.202.87 2.946-.132 3.618-.4.67-.268 1.545-2.413 1.545-2.413s-.607.268-2.28.805c-1.674.535-.536-2.948-.803-3.28-.268-.337.267-5.963 1.14-6.365.87-.403.8.804 2.875 2.612 2.074 1.808 2.08 0 2.546.333.47.336 2.207-.87 3.346-.133 1.14.736 1.874 4.285 1.874 4.285.657-2.203.98-4.645 1.133-6.562l.06-3.675-2.93-9.58-6.7-3.753z"/><path opacity=".093" fill="#D8B6A0" enable-background="new" d="M81.667 18.885l-6.723 1.898-3.224 4.826-.188 10.326s.188 1.543.444 3.492c.626.404 1.075.845 1.17 1.308.403 1.94 1.807 3.956 2.343 4.157.534.2.406-1.546.54-2.015.134-.467.536-.938.67-1.942.133-1.004 2.138-.8 3.01-.734.87.067 1.738-.87 2.343-.47.6.404-.934 3.685-1.27 3.887-.334.2-.47 2.006-.47 2.676 0 .67-1.206.737-.804 1.81.4 1.07 3.28.736 3.814.668.538-.068.67-2.343.535-2.812-.134-.467.673-2.878.54-3.48-.135-.603.802-3.55.535-4.555-.267-1.006-3.752-4.484-4.756-5.02-1.006-.535 1.003-2.547 1.003-2.547s-.47-2.006-.334-2.876c.133-.87 3.416-2.816 3.416-2.816s2.208.47 1.872-.6c-.335-1.07 2.747-2.078 2.747-2.078L87.1 20.02l-5.433-1.135z"/><path fill="#fca" stroke="#000" stroke-width="2" d="M128.656 81.136c-2.465 2.998-6.442 2.028-7.83 2.124-1.942.133-3.482-1.745-3.952-1.745-.055 0-.113-.03-.178-.09-1.8 2.467-7.032 9.65-7.315 9.935-.103.104-.432.242-.823.38-1.92 9.23-5.49 9.394-5.49 9.394.57 1.988-.758 4.453-.944 4.594-.19.142-2.23 3.033-1.377 3.79.614.548 1.08 3.895 1.293 5.72l.874-.688c-.336 1.038.805 1.158.938 1.104.135-.048 1.09-2.157 1.727-3.75.635-1.59-.552-2.594-.818-3.332-.27-.737 2.005-5.96 2.54-6.294.536-.334 8.236-6.967 8.236-6.967 3.884-1.472 12.122-11.715 12.593-12.25.183-.212.37-1.023.526-1.924z"/><path fill="#241F1C" d="M117.1 81.837c-.043.476-.095 1.05-.154 1.598-.035.322-.073.618-.108.85-.006.044-.014.072-.02.113.173-.075.388-.173.67-.313.522-.26 1.198-.6 1.832-.92-.54-.213-1.026-.488-1.42-.767-.247-.174-.463-.34-.64-.463-.076-.055-.1-.06-.16-.098z"/><path opacity=".618" fill="#FCDEC8" enable-background="new" d="M89.02 43.818s.47 2.21.2 2.813c-.267.602 1.743 3.817 2.145 4.22.4.4 1.808-1.073 2.142-1.608.335-.536 1.072-2.144 1.54-2.144.47 0 .335-.868-.268-1.205-.603-.335-5.158-2.476-5.76-2.075z"/><path fill="#a00" d="M79.25 48.576s1.467 6.392 5.753 5.848c5.042-.072 6.13-5.516 6.13-5.516s-4.592.022-5.94.496l-.047-.023c-2.204-.97-5.897-.804-5.897-.804z"/><path fill="#C6A318" d="M72.48 40.573s-.76-4.45 0-6.06c0 0-.475-1.798-.096-3.598.38-1.8.19-3.22.947-3.978.76-.758 1.895-3.98 2.653-4.073.757-.095 4.64-1.99 5.585-1.515 7.173.767 9.216 3.302 13.07 9.47.284.662 3.124 8.237 2.745 11.172-.38 2.937-2.27 12.975-4.923 15.342 0 0 6.532-7.386 6.723-17.804 0 0 1.42-2.272 1.325-3.03 0 0 0 16.385-3.504 21.023 8.23-14.272 10.96-45.65-11.175-47.35 0 0-3.22.946-4.452-.284C70.4 14.404 71.003 19.54 69.54 24.566c.192 18.943 2.94 16.006 2.94 16.006z"/><path fill="#F4D7D7" d="M80.243 48.883s2.084 3.504 4.713 3.552c0 0 1.823.593 4.875-3.1h.073c-5.704 2.32-9.66-.452-9.66-.452z"/><path fill="#fc0" d="M76.506 14.53c-.548-.012-1.306.043-2.084.12-3.33 3.178-3.37 6.47-4.375 9.975.097 9.393.86 13.38 1.5 14.852.154.356.28.535.372.636-.056-.354-.15-.886-.225-1.93-.092-1.27-.132-2.676.27-3.693-.055-.222-.46-1.853-.076-3.674.178-.857.226-1.64.327-2.348.1-.708.26-1.38.766-1.886.178-.178.587-.914.972-1.667.35-.687.707-1.373 1.093-1.886.013-.388.027-.756.058-1.05.018-.166.04-.316.072-.45.028-.133.022-.243.217-.438.12-.12.21-.167.34-.243s.284-.164.457-.252c.346-.177.768-.373 1.177-.56.228-.105.238-.107.444-.2-.168-.074-.33-.14-.502-.218l-.945-.44c-.133-.06-.246-.107-.33-.142-.08-.032-.172-.05-.09-.036-.184-.03-.4-.253-.436-.406-.036-.153-.016-.236 0-.31.033-.14.083-.245.143-.365.117-.24.286-.514.463-.79.13-.206.152-.23.27-.405-.268-.047-.502-.09-.502-.09-.175-.038-.318-.163-.375-.334-.057-.168-.02-.354.098-.49.195-.228.667-.77 1.093-1.255-.102-.013-.075-.023-.194-.025z"/><path fill="#fc0" d="M85.855 10.65c-.143.04-1 .266-2.046.322-.247.2-.46.39-.658.565.09 0 .154.007.25.007.555-.007 1.168-.04 1.532-.04.195 0 .34.042.548.098.206.056.446.128.72.218.547.18 1.206.42 1.842.657 1.27.476 2.456.953 2.456.953.225.09.344.336.275.568-.067.233-.3.377-.54.333 0 0-1.232-.247-2.597-.487-.684-.122-1.396-.245-2.008-.33-.496-.068-.832-.086-1.087-.096.053.088.053.115.16.232.433.473 1.234 1.037 1.845 1.235.23.074.43.15.587.4.078.122.117.3.09.448-.027.146-.098.253-.168.335-.273.325-.638.457-1.1.636-.922.358-2.19.68-3.07.85-.54.105-.936.223-1.26.34.465-.054 1.007-.095 1.647.006 1.653.262 3.646 1.45 5.07 4.917 2.643 1.55 4.36 4.023 6.69 7.752.013.022.024.043.032.065.176.406.937 2.423 1.642 4.788.704 2.363 1.36 4.965 1.145 6.633-.204 1.585-.816 5.117-1.762 8.485 1.35-2.94 2.548-6.7 2.626-11.015 0-.084.024-.17.07-.242 0 0 .3-.487.61-1.076.313-.59.62-1.33.645-1.583.033-.243.245-.422.49-.412.246.012.44.212.45.457-.003.41-.022 3.648-.342 7.54-.132 1.62-.33 3.34-.584 5.03 2.104-6.62 3.104-14.467 2.116-21.334-.66-4.568-2.19-8.695-4.827-11.763-2.62-3.053-6.34-5.083-11.488-5.493z"/><path fill="#C6A318" d="M91.697 14.354s7.1 6.696 7.837 10.713c.735 4.02 2.21 9.978 2.007 12.925l.135.202c4.42-14.398-9.978-23.84-9.978-23.84z"/><path fill="#C6A318" d="M91.096 23.528s4.486 6.897 6.027 11.45h.065c-1.606-11.516-6.092-11.45-6.092-11.45z"/><linearGradient id="a" gradientUnits="userSpaceOnUse" x1="2654.712" y1="-2286.128" x2="2699.466" y2="-2333.851" gradientTransform="matrix(.12 0 0 -.12 -246.974 -254.651)"><stop offset="0" stop-color="#474442"/><stop offset="1" stop-color="#474442" stop-opacity="0"/></linearGradient><path fill="url(#a)" d="M81.088 21.272c-1.388.047-4.44 1.507-5.103 1.59-.757.094-1.894 3.315-2.65 4.072-.76.758-.574 2.183-.953 3.982-.115.543-.146 1.083-.142 1.577l.04.006s1.605-5.422 2.007-5.49c.4-.065.937-.27 1.14-1.208.198-.94 1.945-1.134 2.212-1.603.268-.47 1.673-.475 2.143-1.21.467-.737 1.736-.934 1.736-.934 1.353.107 2.655.024 3.59-.077-1.03-.282-2.195-.488-3.54-.632-.118-.058-.285-.082-.482-.076z"/><path opacity=".112" fill="#474442" enable-background="new" d="M74.086 48.342c-2.52.913-5.94 2.837-6.87 6.755 1.29-1.41 3.865-4.06 4.656-3.712 1.072.47 3.016.805 3.218 4.085.2 3.282 2.547.8 2.547.4 0-.186-.35-1.7-.72-3.25-.98-1.44-1.904-2.942-2.83-4.278z"/><path fill="#D8B6A0" d="M74.498 45.805c-.006.01-.006.016-.012.027-.076.124-.17.3-.264.502-.177.375-.356.826-.502 1.197 1.917 2.617 3.772 6.063 6.055 8.418-.04-.168-.076-.356-.115-.496-.045-.158-.09-.292-.13-.387-.018-.045-.034-.082-.045-.104-.012-.017-.022-.015.014 0-.102-.048-.14-.108-.207-.19-.07-.084-.15-.19-.24-.317-.178-.247-.398-.564-.637-.893-.473-.657-1.04-1.357-1.4-1.55-.516-.28-.922-.946-1.237-1.552-.316-.605-.522-1.153-.522-1.153l-.006-.03s-.152-.783-.328-1.635c-.09-.426-.18-.867-.263-1.236-.065-.28-.12-.45-.162-.6z"/><path opacity=".491" fill="#483E37" enable-background="new" d="M107.423 95.813c-3.773 6.146-11.72 8.258-10.572 8.07 1.207-.204 1.075.873 2.278 2.013 1.207 1.138.07 5.96.606 5.56.335-.254.835-1.108 1.178-1.733-.053-.09-.114-.155-.167-.204-.853-.76 1.188-3.65 1.377-3.792.187-.14 1.514-2.605.945-4.594 0 0 2.427-.108 4.356-5.32z"/><path opacity=".753" fill="#D8B6A0" enable-background="new" d="M116.767 81.65c-.914 1.255-2.606 3.578-4.146 5.676-.783 1.07-1.518 2.072-2.076 2.824-.28.378-.52.685-.696.915-.086.113-.156.212-.212.282s-.084.11-.12.148c-.094.092-.21.145-.36.212-.126.056-.28.117-.44.175-.178.85-.38 1.592-.584 2.296.89-.522 1.902-1.128 2.253-1.39.356-.268 2.958-2.34 5.54-4.497 1.29-1.078 2.576-2.182 3.59-3.1.505-.46.942-.872 1.273-1.21.234-.24.338-.382.45-.528-.137-.004-.303-.012-.398-.006-1.036.07-1.943-.387-2.646-.85-.35-.23-.65-.466-.888-.637-.117-.088-.216-.155-.297-.2-.08-.046-.14-.058-.135-.058-.047.002-.07-.036-.108-.05z"/><path fill="#fca" d="M40.694 90.51c.004.046.008.08.025.148.054.223.166.542.32.914.31.742.774 1.7 1.24 2.617.47.92.942 1.803 1.257 2.406.156.303.276.536.342.675.014.04.026.063.036.093.006.014.008.026.012.045.007.02.023.032.016.103-.004.036-.02.105-.098.162-.076.055-.17.046-.212.032-.082-.026-.088-.044-.103-.057-.028-.028-.043-.05-.063-.08-.064-.08-.234-.214-.472-.353 1.116 1.57 2.22 3.152 3.225 4.62.44-.5.996-1.023 1.77-1.094.763-.07 1.134.044 1.273.07.07.015.022.02.032.013.01-.006.085-.087.2-.252.066-.094.106-.29.09-.57-.015-.278-.08-.623-.16-.99-.166-.735-.41-1.557-.444-2.238 0-.04-.094-.254-.295-.503-.204-.25-.5-.55-.863-.882-.723-.663-1.696-1.44-2.7-2.174-1.007-.737-2.047-1.436-2.89-1.944-.42-.256-.794-.46-1.09-.6-.236-.11-.37-.14-.448-.16z"/><path opacity=".373" fill="#272726" enable-background="new" d="M54.757 98.148c-.05.002-.092.006-.12.012-.47.102-1.476.098-1.476.464 0 .368-.132 1.744.17 1.777.3.033.702-.534 1.003-.366.3.168.667.47.733.772.068.3-.097.937.27.972.37.032 2.075-2.25 1.84-1.345-.233.903-1.336 1.408-.9 1.878.23.25.892.583 1.474.852-.035-.25-.068-.514-.097-.78 0-.02-.004-.04-.006-.064-.02-.168-.038-.34-.052-.515-.004-.04-.004-.08-.01-.12l-.03-.464c-.005-.09-.01-.172-.01-.26-.008-.127-.014-.253-.016-.38-.003-.19 0-.377.005-.558v-.046c.01-.188.022-.367.04-.54v-.007c.004-.046.014-.088.02-.13.004-.045.006-.092.012-.137v-.006l.013-.077c.01-.063.02-.124.032-.187.013-.07.027-.14.045-.205.002-.014.002-.026.006-.038.006-.027.017-.052.025-.08.014-.048.028-.097.045-.145-.967-.12-2.494-.298-3.016-.277z"/><path fill="#302823" d="M58.375 96.86c-.434.293-2.442 1.897-1.962 6.424l2.713-.49s2.747 1.8 3.316 1.61c.567-.19-.856-2.936-.856-2.936 2.083 3.032 9.755 2.085 9.755 2.085-5.245.056-10.004-3.696-12.965-6.692z"/><path fill="#483E37" d="M129.743 73.57c-.048.336-.088.69-.142.99-.115.645-.213 1.15-.377 1.454-.108.197-.11.286-.11.284 0-.002-.024-.016.037.018.064.035.187.076.31.182.123.104.235.284.257.51.022.216-.032.46-.103.79-.073.33-.173.723-.276 1.133-.097.383-.195.78-.277 1.15.64-1.11 1.12-2.63 1.308-4.728-.024-.058-.18-.446-.367-.963-.106-.3-.167-.538-.257-.82z"/><path fill="#483E37" d="M125.438 66.724c.275 1.726.406 3.96-.32 5.932.038-.054.07-.106.114-.16.216-.268.438-.523.643-.69.103-.08.2-.14.302-.167.106-.028.235 0 .303.096.162.225.407.488.63.645.114.08.23.13.305.143.077.013.106-.002.147-.054-.016.018.014-.023.014-.104-.002-.078-.017-.194-.038-.327-.046-.27-.13-.627-.233-1.024-.202-.778-.475-1.705-.668-2.443-.205-.14-.426-.257-.658-.374-.04-.02-.068-.06-.07-.104 0 0-.007-.175-.11-.515-.067-.218-.195-.516-.362-.856z"/><path fill="#17100C" d="M42.316 58.946c-1.55 5.225-3.036 10.875 5.02 16.1-13.732-4.64-5.02-16.1-5.02-16.1z"/><path fill="#17100C" d="M32.278 66.523s-2.793 8.474 7.103 12.642l.19.048c-7.055-4.406-7.292-12.69-7.292-12.69z"/><path fill="#17100C" d="M49.75 55.868s-10.274 5.54-.52 18.562c0 0-7.293-11.364.52-18.562z"/><path opacity=".47" fill="#A5968C" enable-background="new" d="M89.083 38.012s4.822 1.472 6.83-1.004c0 0-3.414-5.022-6.83 1.004z"/><path opacity=".473" fill="#A5968C" enable-background="new" d="M82.324 38.06s-4.822 1.472-6.83-1.005c0 0 3.413-5.022 6.83 1.005z"/><path stroke="#000" d="M76.858 36.573s.805 1.586 4.69 1.16h.07c-1.516-3.67-4.76-1.16-4.76-1.16z"/><path fill="#fff" stroke="#000" d="M77.38 36.62s.283 1.54 4.167 1.112h.07c-1.09-3.195-4.238-1.112-4.238-1.112z"/><path stroke="#000" d="M93.74 36.88s-.284 1.54-4.167 1.113H89.5c1.09-3.195 4.24-1.113 4.24-1.113z" fill="none"/><path stroke="#000" d="M94.262 36.833s-.806 1.587-4.688 1.16h-.072c1.515-3.668 4.76-1.16 4.76-1.16z"/><path fill="#171310" d="M76.173 33.235s5.54 2.27 6.202 2.318c.662.048-1.232-2.222-6.202-2.318z"/><path fill="#171310" d="M89.29 35.317s5.682-1.514 6.013-1.514c.332 0-2.416-1.61-6.014 1.514z"/><defs><filter id="b" filterUnits="userSpaceOnUse" x="77.94" y="34.946" width="3.141" height="2.986"><feColorMatrix values="1 0 0 0 0 0 1 0 0 0 0 0 1 0 0 0 0 0 1 0"/></filter></defs><mask maskUnits="userSpaceOnUse" x="77.94" y="34.946" width="3.141" height="2.986" id="c"><path fill="#fff" filter="url(#b)" d="M98.005 86.958s.284 1.54 4.166 1.112h.073c-1.09-3.195-4.238-1.112-4.238-1.112z"/></mask><g mask="url(#c)"><path fill="#28170B" stroke="#000" stroke-width=".604" d="M80.78 36.44c0 .657-.57 1.19-1.27 1.19-.7 0-1.268-.534-1.268-1.19 0-.658.568-1.19 1.268-1.19.7-.002 1.27.53 1.27 1.19z"/><path d="M80.14 36.438c0 .327-.28.592-.63.592-.347 0-.628-.265-.628-.592 0-.326.28-.59.63-.59.347 0 .628.264.628.59z"/></g><path fill="#fff" stroke="#000" d="M93.74 36.88s-.284 1.54-4.167 1.113H89.5c1.09-3.195 4.24-1.113 4.24-1.113z"/><path d="M89.453 37.993s1.23-3.942 5.328-.792l.984-.368s-.81.13-.904.13c0 0 .396-.36.472-.345 0 0-.546.186-.628.202 0 0 .133-.344.31-.443 0 0-.46.216-.52.225 0 0 .177-.31.242-.31l-.502.167s.15-.285.243-.302c0 0-.345.167-.386.167 0 0 .06-.25.127-.268l-.417.177s.108-.3.184-.31c0 0-.36.184-.418.194 0 0 .1-.26.15-.278l-.402.152c-.024.006.085-.27.085-.27l-.33.25s-.066-.08 0-.23l-.262.204.1-.223s-.385.126-.553.157c-.167.028-2.315.01-2.902 2.113z"/><defs><filter id="d" filterUnits="userSpaceOnUse" x="90.228" y="35.207" width="3.14" height="2.985"><feColorMatrix values="1 0 0 0 0 0 1 0 0 0 0 0 1 0 0 0 0 0 1 0"/></filter></defs><mask maskUnits="userSpaceOnUse" x="90.228" y="35.207" width="3.14" height="2.985" id="e"><path fill="#fff" filter="url(#d)" d="M114.363 87.22s-.283 1.538-4.167 1.11h-.07c1.09-3.195 4.237-1.11 4.237-1.11z"/></mask><g mask="url(#e)"><path fill="#2B1100" stroke="#000" stroke-width=".604" d="M93.065 36.7c0 .657-.566 1.19-1.268 1.19-.7 0-1.268-.533-1.268-1.19 0-.658.566-1.19 1.267-1.19.702 0 1.268.532 1.268 1.19z"/><path d="M92.428 36.698c0 .326-.28.59-.63.59s-.628-.264-.628-.59c0-.327.28-.592.63-.592s.628.265.628.592z"/></g><path d="M81.65 37.742s-1.23-3.942-5.327-.792l-.982-.37s.808.132.902.132c0 0-.393-.362-.47-.344 0 0 .544.184.628.2 0 0-.133-.344-.308-.442 0 0 .46.215.52.224 0 0-.177-.31-.244-.31l.502.168s-.15-.284-.243-.3c0 0 .343.167.384.167 0 0-.058-.25-.124-.268l.418.177s-.11-.303-.183-.31c0 0 .36.185.418.192 0 0-.1-.26-.15-.277l.4.15c.024.007-.083-.266-.083-.266l.327.25s.066-.084 0-.233l.264.205-.102-.22s.386.125.552.154c.172.027 2.32.01 2.905 2.112z"/><path opacity=".352" fill="#ccc" enable-background="new" d="M80.717 50.28c.037.108 2.42 2.334 3.03 2.274.955-.097.38 1.513-.378 1.23-.758-.282-2.227-2.555-2.653-3.503z"/><path opacity=".352" fill="#ccc" enable-background="new" d="M89.28 50.687c-.045.103-2.626 2.102-3.227 1.985-.94-.183-.517 1.474.264 1.26.782-.213 2.45-2.342 2.963-3.245z"/><path fill="#241F1C" d="M81.43 9.646l-.13.05c-5.516 2.27-8.158 4.718-9.586 7.24-1.432 2.52-1.646 5.085-2.37 7.573l-.005.032v.032c.094 9.48.817 13.487 1.556 15.185.37.848.767 1.154 1.133 1.183.36.03.598-.226.598-.226l.07-.076-.013-.102s-.19-1.104-.284-2.407c-.09-1.3-.07-2.816.265-3.53l.033-.066-.02-.07s-.456-1.77-.09-3.506c.194-.918.243-1.73.334-2.395.093-.66.226-1.15.554-1.48.223-.223.435-.575.664-.99.228-.415.465-.892.702-1.345.235-.453.465-.884.68-1.197.216-.31.436-.475.49-.48.252-.033.62-.17 1.107-.354.487-.185 1.07-.414 1.66-.625.587-.21 1.18-.405 1.673-.514.49-.11.89-.107 1.03-.04l.03.015.04.007c3.563.382 5.813 1.19 7.667 2.665 1.854 1.472 3.32 3.627 5.245 6.704 0 0-.002.006 0 .006.14.332.912 2.375 1.602 4.684.696 2.337 1.29 4.977 1.114 6.358-.188 1.453-.753 4.695-1.603 7.854-.424 1.58-.922 3.14-1.472 4.447-.27.64-.552 1.21-.845 1.7-.53.73-.908 1.175-.927 1.196-.004.006-.008.012-.012.014l-.012.02.29.29c.007-.005.013-.014.02-.02.002 0 .002-.01.006-.012.35-.32.675-.75.984-1.27 1.833-2.52 5.623-8.654 5.785-16.598.026-.047.342-.554.676-1.198.075-.146.133-.298.205-.45-.024 1.436-.09 3.925-.405 7.31-.218 2.332-.55 4.813-1.036 6.987-.24 1.07-.52 2.06-.845 2.928-.375.78-.76 1.55-1.164 2.253l.347.23c.006-.007.008-.02.014-.025.455-.61.845-1.397 1.185-2.31 3.452-7.18 5.594-17.295 4.64-26.2-.532-4.948-2.016-9.513-4.775-12.958-2.762-3.445-6.803-5.762-12.387-6.19h-.037l-.04.013s-.788.228-1.726.31c-.934.08-1.99-.015-2.52-.548l-.098-.1zm-.067.482c.707.595 1.793.654 2.722.573.948-.08 1.705-.297 1.763-.313 5.468.428 9.374 2.673 12.064 6.028 2.695 3.363 4.166 7.853 4.69 12.746.824 7.68-.698 16.312-3.358 23.113.49-2.19.812-4.657 1.03-6.982.438-4.686.443-8.787.443-8.787h-.008c0-.008.002-.02 0-.027l-.406.027v.024c.015.113-.04.388-.154.697-.115.307-.28.656-.45.984-.338.653-.695 1.215-.695 1.215l-.023.046v.056c-.108 5.994-2.33 10.922-4.185 14.053.43-1.14 1.07-2.742 1.413-4.017.854-3.186 1.422-6.426 1.614-7.908.202-1.555-.43-4.17-1.133-6.524l-1.646-4.786c-1.93-3.086-3.41-5.286-5.332-6.813-1.926-1.527-4.516-2-8.123-2.385v.006c-.33-.13-.738-.087-1.23.02-.525.118-1.128.32-1.726.535-.595.215-1.182.442-1.665.624-.485.182-.885.318-1.013.334-.325.04-.537.314-.772.657-.234.342-.475.785-.713 1.243-.237.457-.472.927-.694 1.33-.222.406-.437.746-.593.903-.43.43-.58 1.022-.675 1.71-.098.688-.143 1.486-.328 2.368-.38 1.808.057 3.53.084 3.63-.39.902-.37 2.368-.278 3.66.09 1.247.25 2.173.27 2.297-.038.033-.083.08-.198.073-.158-.013-.45-.155-.792-.94-.682-1.566-1.423-5.56-1.52-14.998.733-2.527.95-5.028 2.325-7.45 1.37-2.42 3.9-4.782 9.29-7.017z"/><path fill="none" d="M25.203 5.113h107.41v120H25.202z"/></g></svg>